<?xml version="1.0" encoding="UTF-8"?>
<svg version="1.1" xmlns="http://www.w3.org/2000/svg" width="1024" height="1024">
<path d="M0 0 C3.22429122 1.52017757 5.6612154 3.30685409 8 6 C9.25 9.5625 9.25 9.5625 9 13 C7.34535427 15.81902605 6.19229116 17.52159627 3.12109375 18.75390625 C0.39484156 19.07021175 -0.86571697 18.37385566 -3.25 17.0625 C-3.95640625 16.68222656 -4.6628125 16.30195313 -5.390625 15.91015625 C-6.18726563 15.45962891 -6.18726563 15.45962891 -7 15 C-6.86089513 18.58362776 -6.71254587 22.16681498 -6.5625 25.75 C-6.52318359 26.76578125 -6.48386719 27.7815625 -6.44335938 28.828125 C-6.38051758 30.29765625 -6.38051758 30.29765625 -6.31640625 31.796875 C-6.27974854 32.69760742 -6.24309082 33.59833984 -6.20532227 34.52636719 C-6.01693593 36.79596339 -5.62633499 38.81562887 -5 41 C6.16792249 34.60509003 17.61239099 27.96685711 26.4375 18.4375 C34.44223911 10.03451517 46.67118467 3.23334005 58.0625 1.0625 C63.75581828 0.97212987 68.61474933 1.79107176 72.90234375 5.76171875 C74.36380061 7.4570087 75.71864994 9.1659107 77 11 C77.886875 10.608125 78.77375 10.21625 79.6875 9.8125 C83 9 83 9 85.75 10.1875 C88 12 88 12 90 15 C89.71315285 23.89226153 87.05719962 32.67170491 83.375 40.75 C82.21615945 43.48907765 81.52718892 45.82090678 80.9140625 48.703125 C80.74084473 49.50911133 80.56762695 50.31509766 80.38916016 51.14550781 C80.19652588 52.06348145 80.19652588 52.06348145 80 53 C84.6464533 49.24824245 89.28160136 45.48319274 93.90625 41.70458984 C95.66980915 40.26881909 97.44216462 38.8453413 99.21875 37.42578125 C107.61676382 30.56371995 115.19480228 22.93338743 122.75463867 15.171875 C123.61935791 14.29015625 124.48407715 13.4084375 125.375 12.5 C126.14585937 11.7059375 126.91671875 10.911875 127.7109375 10.09375 C132.22349165 5.96622607 135.73875082 4.35229621 141.78515625 4.59375 C145.65347585 5.30328305 147.45709953 7.09382803 150 10 C154.87284952 17.99221153 153.71470744 27.59339796 151.66040039 36.3046875 C150.60010634 40.52845806 149.54414219 44.6921824 147.8671875 48.72265625 C146.76275866 51.21688159 146.76275866 51.21688159 147 55 C152.84855652 51.88906568 157.88242238 48.19671557 163 44 C163.79615723 43.3493457 163.79615723 43.3493457 164.60839844 42.68554688 C173.53677597 35.3470161 181.43095749 27.67345179 188.8515625 18.78125 C196.16115391 10.10319627 203.69551821 3.98780457 215.28125 2.7578125 C222.04125386 2.54358703 229.87797312 3.00409364 235.4375 7.1875 C239.60956139 11.76659177 241.18880296 15.87439276 241 22 C244.3198291 20.81120058 247.62916287 19.59537922 250.9375 18.375 C251.86369141 18.04371094 252.78988281 17.71242188 253.74414062 17.37109375 C260.97112784 14.68316166 267.08520361 11.18716142 273.06616211 6.31787109 C275 5 275 5 278 5 C278.33 4.34 278.66 3.68 279 3 C279 3.99 279 4.98 279 6 C280.2065625 6.4640625 280.2065625 6.4640625 281.4375 6.9375 C284 8 284 8 285 9 C285.69255802 15.0252548 283.4827556 20.30630763 281.625 25.9375 C278.74338288 34.97115807 276.73225369 43.54047783 276 53 C288.68491829 46.77226234 299.04834605 37.43467691 308.85009766 27.43115234 C310.38827143 25.86145659 311.93719399 24.30302131 313.48828125 22.74609375 C318.3696867 17.82542402 323.14445898 12.85725129 327.58447266 7.52783203 C329 6 329 6 332 4 C335.38403549 4.14100148 337.31921738 4.42902103 339.9375 6.625 C341.51581779 10.15300446 340.91196887 12.26362122 340 16 C338.34772522 18.60626464 336.34787257 20.80728699 334.25 23.0625 C333.19241322 24.24062057 332.13511873 25.41900358 331.078125 26.59765625 C330.56185547 27.1611377 330.04558594 27.72461914 329.51367188 28.30517578 C328.02542997 29.97152664 326.62879721 31.68851838 325.234375 33.43359375 C324.49703125 34.28050781 323.7596875 35.12742187 323 36 C322.34 36 321.68 36 321 36 C320.731875 36.639375 320.46375 37.27875 320.1875 37.9375 C319 40 319 40 316 41 C316 41.66 316 42.32 316 43 C313.58016845 45.58218447 310.72472524 47.74947801 308 50 C307.44231934 50.46325684 306.88463867 50.92651367 306.31005859 51.40380859 C284.50648589 69.44834528 284.50648589 69.44834528 272.5078125 69.2734375 C268.71135225 68.85949324 266.74680069 67.61281041 264 65 C257.39596674 54.43354678 261.7261324 40.42347772 264 29 C263.67 29.99 263.34 30.98 263 32 C261.989375 32.0825 260.97875 32.165 259.9375 32.25 C258.28910923 32.48254084 256.64367333 32.73617175 255 33 C253.80375 33.17660156 252.6075 33.35320312 251.375 33.53515625 C246.07499279 34.50060482 241.43583593 35.34653738 237.7578125 39.58203125 C236.03842604 42.66821109 234.52904566 45.81612601 233 49 C226.24878483 59.22201342 215.99207506 67.99425384 204.078125 71.578125 C198.78959708 72.65173593 193.1371533 72.98447967 188.25 70.4375 C181.6602211 66.00804956 178.35181024 60.44739908 176 53 C175.46632813 53.49628906 174.93265625 53.99257813 174.3828125 54.50390625 C165.28645097 62.79764764 155.1244347 72 142.125 72 C136.90860695 70.33075423 134.75221888 68.33458189 132.0625 63.5625 C129.1481015 54.6205955 133.33163091 44.48949304 136.11328125 35.96875 C137.21410326 32.28317851 137.69990644 28.82619289 138 25 C137.34 24.67 136.68 24.34 136 24 C134.5459375 25.175625 134.5459375 25.175625 133.0625 26.375 C132.24458984 27.03628906 132.24458984 27.03628906 131.41015625 27.7109375 C129.86733563 28.9666391 129.86733563 28.9666391 129 31 C128.34 31 127.68 31 127 31 C126.6596875 31.86625 126.6596875 31.86625 126.3125 32.75 C124.65238361 35.59591381 122.60812043 36.99841921 120 39 C117.66030921 41.27469938 115.3811785 43.59639924 113.140625 45.96875 C103.43175907 56.0319541 90.82170703 67.10179137 77.1875 71.125 C72.25562868 70.93159328 68.52396609 69.57312629 65.0625 66 C64 64 64 64 64 61 C63.34 60.67 62.68 60.34 62 60 C62.33 56.37 62.66 52.74 63 49 C62.29617188 49.68964844 61.59234375 50.37929688 60.8671875 51.08984375 C55.44716413 56.28953341 49.95352193 60.99513633 43.625 65.0625 C43.05507324 65.43173584 42.48514648 65.80097168 41.89794922 66.18139648 C36.06051366 69.81806939 29.95267394 72.26057827 23 71 C18.76185625 69.23347497 15.78155283 67.02578809 13 63.375 C11.5750903 58.56592975 11.76084309 53.97800674 12 49 C10.87851562 49.61488281 10.87851562 49.61488281 9.734375 50.2421875 C8.74953125 50.78101563 7.7646875 51.31984375 6.75 51.875 C5.77546875 52.40867187 4.8009375 52.94234375 3.796875 53.4921875 C1 55 1 55 -1.328125 55.74609375 C-3.38522345 56.98173258 -3.38522345 56.98173258 -3.46875 60.23046875 C-3.4790625 61.53628906 -3.489375 62.84210938 -3.5 64.1875 C-3.74396229 71.20266043 -4.3962149 75.35787676 -9.46875 80.484375 C-14.12327963 84.39242346 -19.00991169 85.30983215 -25 85 C-29.57706884 84.16273131 -32.83553748 82.55442352 -35.9375 79.0625 C-38.67730203 74.99430911 -39.16016381 73.18120812 -38.5 68.3125 C-35.90665747 59.08981828 -28.87485769 53.72491461 -21 49 C-21.33 44.71 -21.66 40.42 -22 36 C-28.05837381 39.93972835 -33.74839714 44.09903177 -39.375 48.625 C-45.74991447 53.6614117 -52.26549715 58.33245349 -59.125 62.6875 C-59.89376465 63.18008301 -60.6625293 63.67266602 -61.45458984 64.18017578 C-69.33793601 69.08471997 -76.56450971 72.10819517 -86 71 C-89.42050247 69.98651779 -91.23660051 69.19059986 -93.1796875 66.16015625 C-94.21278075 64.13544431 -95.11602851 62.09340522 -96 60 C-96.36351562 59.31292969 -96.72703125 58.62585938 -97.1015625 57.91796875 C-98.22736848 55.51461771 -98.14564248 53.62156463 -98 51 C-97.34 51 -96.68 51 -96 51 C-95.67 50.01 -95.34 49.02 -95 48 C-95.969375 48.76183594 -96.93875 49.52367187 -97.9375 50.30859375 C-127.20971421 72.98985984 -127.20971421 72.98985984 -142.3125 71.9375 C-147.01206511 70.74269531 -150.24104057 69.33216666 -153.22265625 65.37890625 C-156.56804655 59.61140542 -156.78182125 53.54536246 -157 47 C-157.48210937 47.5053125 -157.96421875 48.010625 -158.4609375 48.53125 C-159.09257812 49.1809375 -159.72421875 49.830625 -160.375 50.5 C-161.00148438 51.1496875 -161.62796875 51.799375 -162.2734375 52.46875 C-164 54 -164 54 -166 54 C-166 54.66 -166 55.32 -166 56 C-175.79484653 65.30226237 -187.38996619 74.59773254 -201.34375 74.31640625 C-206.2904272 73.7271697 -208.87576264 71.09385257 -212.3125 67.75 C-215.61286513 62.37162719 -215.32898122 57.54145436 -214.125 51.5625 C-208.84605184 32.81394869 -196.60525036 17.09241264 -180 7 C-171.29734296 2.43510934 -162.84485892 0.17947017 -153.1875 3.1875 C-149.83103433 5.09607852 -147.57016197 7.13610523 -145 10 C-144.01 10.99 -144.01 10.99 -143 12 C-142.34 11.34 -141.68 10.68 -141 10 C-134.87866109 9.44351464 -134.87866109 9.44351464 -132.125 11.1875 C-130.69055727 13.49854663 -130.33130469 15.29772732 -130 18 C-130.58911133 20.44433594 -130.58911133 20.44433594 -131.58203125 22.984375 C-132.11473633 24.38816406 -132.11473633 24.38816406 -132.65820312 25.8203125 C-133.03912109 26.78710938 -133.42003906 27.75390625 -133.8125 28.75 C-137.50571621 38.26341558 -140.37380875 46.72025941 -140 57 C-124.41577045 51.54192882 -111.71515578 42.26786227 -99 32 C-98.33838867 31.46761719 -97.67677734 30.93523437 -96.99511719 30.38671875 C-90.38296412 25.02245567 -84.2482866 19.85287699 -79.4296875 12.7421875 C-77.77823685 10.72976404 -76.42650099 9.90933962 -74 9 C-70.51116436 9.34037421 -68.97180967 10.01879355 -66 12 C-64.97789197 14.86190247 -64.5608468 16.91167025 -65.72387695 19.79394531 C-66.22600708 20.73898926 -66.22600708 20.73898926 -66.73828125 21.703125 C-67.1046167 22.40453613 -67.47095215 23.10594727 -67.84838867 23.82861328 C-68.22842041 24.5451709 -68.60845215 25.26172852 -69 26 C-69.69285492 27.35536818 -70.38300904 28.71212076 -71.0703125 30.0703125 C-72.10242916 32.10707502 -73.13455858 34.14365523 -74.17578125 36.17578125 C-76.81676887 41.40716286 -79.01564891 46.48460609 -79.625 52.375 C-79.810625 54.169375 -79.810625 54.169375 -80 56 C-73.86507175 53.46073214 -68.28685508 50.53324437 -62.75 46.875 C-62.01402588 46.39272949 -61.27805176 45.91045898 -60.51977539 45.41357422 C-49.88235299 38.36196839 -40.04880519 30.30309772 -30.20288086 22.20166016 C-29.23040405 21.40381104 -29.23040405 21.40381104 -28.23828125 20.58984375 C-27.66118408 20.11409912 -27.08408691 19.63835449 -26.48950195 19.14819336 C-25 18 -25 18 -23 17 C-22.36336003 15.43733824 -21.78926682 13.84887883 -21.25 12.25 C-19.03486565 6.46420132 -16.47311021 3.97656679 -11.078125 0.90625 C-7.38072675 -0.70614924 -3.93908632 -0.72731496 0 0 Z M-184 30 C-184.63035156 30.59425781 -185.26070313 31.18851562 -185.91015625 31.80078125 C-190.04990549 36.05368992 -192.74582173 40.8860315 -195.4375 46.125 C-195.79215332 46.8063501 -196.14680664 47.4877002 -196.51220703 48.18969727 C-198.52584883 52.29442863 -199.41510856 55.32456671 -199 60 C-186.84880709 56.50023246 -174.89413846 46.78186722 -167 37 C-167 36.34 -167 35.68 -167 35 C-166.34 35 -165.68 35 -165 35 C-162.98350491 32.96995214 -162.98350491 32.96995214 -160.9375 30.375 C-160.22464844 29.51648438 -159.51179688 28.65796875 -158.77734375 27.7734375 C-156.82018318 24.71940671 -156.16687843 22.61064237 -156 19 C-157.96058796 16.61901696 -157.96058796 16.61901696 -161.625 16.625 C-171.18324647 16.95163072 -177.51108141 23.63894187 -184 30 Z M38.7265625 28.10546875 C32.23045823 34.93757841 26.93586997 43.46994386 26 53 C26.33 53.99 26.66 54.98 27 56 C36.88949715 54.48666058 43.99569219 47.36248034 50.8125 40.5625 C51.74521729 39.63219971 51.74521729 39.63219971 52.69677734 38.68310547 C60.23761224 31.05963072 60.23761224 31.05963072 65.0625 21.6875 C65.23979462 18.99731323 65.23979462 18.99731323 63.75 17.125 C55.64734952 11.91615326 44.09560283 23.13311009 38.7265625 28.10546875 Z M222 18 C222.66 18.66 223.32 19.32 224 20 C224 19.34 224 18.68 224 18 C223.34 18 222.68 18 222 18 Z M203.9140625 24.80078125 C196.14557793 33.32490339 191.50625012 40.96999172 191.3359375 52.6875 C191.82802882 55.20744335 191.82802882 55.20744335 194.22265625 56.8828125 C198.50018709 58.60345079 200.80756388 57.38412605 204.94140625 55.70703125 C212.14097997 51.68887836 219.24729568 45.39130613 223 38 C223 37.34 223 36.68 223 36 C221.45138021 35.04541185 219.85907947 34.16121966 218.25 33.3125 C213.31123583 30.47935625 211.27387992 28.16790892 209 23 C205.91918992 22.67326388 205.91918992 22.67326388 203.9140625 24.80078125 Z M-20 65 C-20.33 65.66 -20.66 66.32 -21 67 C-20.01 67 -19.02 67 -18 67 C-18 66.34 -18 65.68 -18 65 C-18.66 65 -19.32 65 -20 65 Z M-20 68 C-19 70 -19 70 -19 70 Z " fill="#FCFDFD" transform="translate(516,423)"/>
<path d="M0 0 C4.78083815 4.22492673 7.42366914 8.26709344 7.83984375 14.6484375 C6.47669972 39.04522039 -12.15431774 64.41706888 -27.3125 82.375 C-27.7967041 82.9539502 -28.2809082 83.53290039 -28.77978516 84.12939453 C-31.10701447 86.91123829 -33.44567735 89.68255323 -35.8046875 92.4375 C-37.11287154 93.96982773 -38.41719329 95.50637391 -39.67285156 97.08203125 C-40.84513458 98.54674185 -42.07472707 99.96519761 -43.3125 101.375 C-43.9725 101.375 -44.6325 101.375 -45.3125 101.375 C-45.66828125 102.21804688 -45.66828125 102.21804688 -46.03125 103.078125 C-47.60197697 105.89394042 -49.52721464 107.85455416 -51.8125 110.125 C-52.6065625 110.92421875 -53.400625 111.7234375 -54.21875 112.546875 C-56.3125 114.375 -56.3125 114.375 -58.3125 114.375 C-58.3125 115.035 -58.3125 115.695 -58.3125 116.375 C-60.01153023 117.89240976 -61.77322723 119.340128 -63.5625 120.75 C-72.44221006 127.77389764 -75.1234397 132.36346256 -76.7890625 143.5859375 C-77.35008252 148.86996323 -77.61867724 152.47771242 -75.3125 157.375 C-68.70519505 159.09864477 -64.26291678 157.54159607 -58.3125 154.375 C-50.64269559 149.51015263 -43.88956638 143.60691421 -37.3125 137.375 C-36.51827637 136.64555176 -36.51827637 136.64555176 -35.70800781 135.90136719 C-33.97537086 134.30606734 -32.26756735 132.68719462 -30.5625 131.0625 C-30.03156738 130.57821533 -29.50063477 130.09393066 -28.95361328 129.5949707 C-20.83659404 121.6972961 -17.24592746 110.09219453 -13.04751587 99.82113647 C21.78050635 14.83212622 21.78050635 14.83212622 49.6875 0.375 C54.89843481 -1.36197827 60.47657535 -1.4717371 65.625 0.5 C69.5786351 4.09421373 71.27973262 8.57296933 71.7421875 13.87109375 C71.15637196 40.69307686 51.15265998 68.50093351 33.58984375 87.2890625 C30.50113885 90.67585596 27.70225096 94.29781095 24.86328125 97.89453125 C22.65639546 100.4104603 20.31662922 102.31686481 17.6875 104.375 C16.69572176 105.47062936 15.73633924 106.59650581 14.8125 107.75 C11.12735701 112.0657119 7.06951339 115.93240264 2.9375 119.8125 C2.27508301 120.4401123 1.61266602 121.06772461 0.93017578 121.71435547 C0.29837402 122.3023291 -0.33342773 122.89030273 -0.984375 123.49609375 C-1.5525293 124.0264624 -2.12068359 124.55683105 -2.70605469 125.10327148 C-4.3125 126.375 -4.3125 126.375 -7.3125 127.375 C-8.76786378 131.24303352 -9.46568041 135.3348663 -10.3125 139.375 C-10.53292969 140.35210938 -10.75335937 141.32921875 -10.98046875 142.3359375 C-12.17255231 148.04833791 -12.39559692 152.63458635 -11.3125 158.375 C2.65716474 159.44501687 12.19702571 152.76860388 22.6875 144.375 C25.41869459 142.00158836 28.08438851 139.5904125 30.69921875 137.08984375 C32.6875 135.375 32.6875 135.375 35.6875 134.375 C36.0175 133.385 36.3475 132.395 36.6875 131.375 C37.3475 131.375 38.0075 131.375 38.6875 131.375 C38.935 130.818125 39.1825 130.26125 39.4375 129.6875 C41.94675211 125.0453836 44.78929227 121.52543266 49.6875 119.375 C53.44959962 119.55851705 56.10700287 120.60335493 58.6875 123.375 C59.13306039 126.99011496 59.01268814 128.83944324 57.10546875 131.98046875 C42.80299747 148.53727 21.27328854 172.32406187 -2.3125 174.375 C-9.73236943 174.84610282 -14.37702918 173.46370039 -20.5625 169.0625 C-26.78705974 162.97940753 -26.92221389 156.69213165 -27.3125 148.375 C-28.199375 149.32375 -29.08625 150.2725 -30 151.25 C-41.13891699 162.27752782 -56.33514357 174.32477187 -72.69140625 174.61328125 C-78.15111825 174.1169438 -81.78798101 172.58768556 -86.0625 169.1875 C-92.03468283 161.72227146 -92.88427025 155.90450414 -92.3125 146.375 C-92.6425 146.705 -92.9725 147.035 -93.3125 147.375 C-126.17907818 173.70017184 -126.17907818 173.70017184 -140.34765625 172.7265625 C-144.98638652 171.896571 -147.56034201 170.27341093 -150.5625 166.6875 C-152.56966365 162.88822594 -153.33277625 159.54741999 -154.3125 155.375 C-155.18390625 156.02726563 -156.0553125 156.67953125 -156.953125 157.3515625 C-178.41253396 173.18177736 -178.41253396 173.18177736 -190.3125 172.375 C-193.86447407 171.07716332 -195.7888302 170.04313044 -198.125 167.0625 C-201.22724181 160.04163695 -199.69075963 155.02229949 -197.5 148 C-196.95065148 146.18004068 -196.40245683 144.35973264 -195.85546875 142.5390625 C-195.5915332 141.66540039 -195.32759766 140.79173828 -195.05566406 139.89160156 C-193.30009631 133.94666319 -192.05328153 128.59624329 -192.3125 122.375 C-195.86234393 123.79493757 -196.67048449 125.02698434 -198.3125 128.375 C-199.60253906 129.98388672 -199.60253906 129.98388672 -201.078125 131.5546875 C-201.63129395 132.14685059 -202.18446289 132.73901367 -202.75439453 133.34912109 C-203.35106934 133.97641113 -203.94774414 134.60370117 -204.5625 135.25 C-205.18366699 135.90693848 -205.80483398 136.56387695 -206.44482422 137.24072266 C-208.39350456 139.29250777 -210.35172574 141.33477466 -212.3125 143.375 C-212.91803711 144.00921875 -213.52357422 144.6434375 -214.14746094 145.296875 C-239.40107459 171.64365878 -239.40107459 171.64365878 -256.05859375 172.50390625 C-260.96008615 172.22357826 -263.59451417 169.99933551 -267.1875 166.875 C-270.55523631 162.38104018 -270.06867374 157.71905141 -269.3125 152.375 C-266.25064658 136.96954904 -259.24947058 119.85881911 -248.3125 108.375 C-245.3125 107.1875 -245.3125 107.1875 -242.3125 107.375 C-239.375 109.375 -239.375 109.375 -237.3125 112.375 C-237.47093667 118.50876232 -239.84116248 122.49628048 -242.9375 127.5625 C-248.5044316 137.0533661 -252.01473067 146.91386419 -255.3125 157.375 C-249.77839618 155.51626296 -245.36842407 153.38965713 -240.8125 149.6875 C-240.22718506 149.21981201 -239.64187012 148.75212402 -239.03881836 148.27026367 C-227.38522901 138.72073073 -216.91924994 127.53713977 -207.43359375 115.85546875 C-206.98693359 115.30826172 -206.54027344 114.76105469 -206.08007812 114.19726562 C-205.18222281 113.0937342 -204.29173862 111.98417014 -203.40820312 110.86914062 C-199.94258008 106.66124231 -196.55909881 104.0911615 -191.1875 102.90625 C-187.40251864 102.84316698 -184.98134246 103.2090901 -181.9375 105.5625 C-176.62314618 111.25645052 -176.40322054 117.86333935 -176.3125 125.375 C-176.91091005 133.6640874 -179.43656523 141.25329683 -182.19140625 149.02734375 C-183.12798041 151.82401292 -183.82249041 154.47348253 -184.3125 157.375 C-166.61454186 147.07250926 -150.24970604 134.20612985 -138.3125 117.375 C-137.23369685 115.91331228 -136.15041315 114.45492 -135.0625 113 C-134.58296875 112.35289062 -134.1034375 111.70578125 -133.609375 111.0390625 C-132.3125 109.375 -132.3125 109.375 -130.3125 107.375 C-126.875 107.4375 -126.875 107.4375 -123.3125 108.375 C-121.3125 110.625 -121.3125 110.625 -120.3125 113.375 C-120.76333252 117.21724106 -122.04576018 120.10043976 -123.89453125 123.47265625 C-124.41466797 124.44009766 -124.93480469 125.40753906 -125.47070312 126.40429688 C-126.55938772 128.40043286 -127.65047033 130.39526316 -128.74414062 132.38867188 C-134.977183 143.79768883 -134.977183 143.79768883 -137.3125 156.375 C-119.03416813 153.94141602 -99.64170513 135.12890367 -88.03320312 121.66699219 C-83.66474502 115.84816632 -81.65045411 109.00061211 -79.33935547 102.18554688 C-77.40076388 96.87953964 -74.96003045 91.79843507 -72.5625 86.6875 C-72.05307861 85.59646973 -71.54365723 84.50543945 -71.01879883 83.38134766 C-69.97737166 81.15748203 -68.93300167 78.93499223 -67.88574219 76.71386719 C-66.32391173 73.39921893 -64.77522641 70.07862837 -63.2265625 66.7578125 C-53.33246425 45.68514126 -42.52809705 25.32045758 -26.3125 8.375 C-24.9821875 6.951875 -24.9821875 6.951875 -23.625 5.5 C-16.72825876 -0.837546 -8.86605147 -4.34938374 0 0 Z M-17.3125 19.375 C-19.20563365 21.39397779 -20.89172821 23.31839673 -22.5625 25.5 C-23.25956055 26.40190063 -23.25956055 26.40190063 -23.97070312 27.32202148 C-29.88191583 35.19137312 -34.61973859 43.74364131 -39.3125 52.375 C-39.77156738 53.21482422 -40.23063477 54.05464844 -40.70361328 54.91992188 C-46.16801529 64.9721248 -51.27043429 75.17274348 -56.0625 85.5625 C-56.50537354 86.51358643 -56.94824707 87.46467285 -57.40454102 88.44458008 C-57.80213623 89.32267334 -58.19973145 90.2007666 -58.609375 91.10546875 C-58.96354492 91.88301514 -59.31771484 92.66056152 -59.68261719 93.46166992 C-60.57917628 95.42870832 -60.57917628 95.42870832 -59.3125 97.375 C-54.38278536 92.58014077 -49.78220568 87.59842075 -45.3125 82.375 C-44.10980469 81.00601563 -44.10980469 81.00601563 -42.8828125 79.609375 C-28.66989864 63.30416481 -12.76063529 43.7918077 -7.3125 22.375 C-7.55273069 20.22449671 -7.55273069 20.22449671 -8.3125 18.375 C-8.8075 16.89 -8.8075 16.89 -9.3125 15.375 C-8.6525 15.045 -7.9925 14.715 -7.3125 14.375 C-11.6259568 14.375 -14.12939409 16.71076481 -17.3125 19.375 Z M46.6875 20.375 C27.57706787 41.12426279 14.97189804 69.41913828 4.6875 95.375 C7.66173111 95.68485093 7.66173111 95.68485093 9.4140625 94.01171875 C14.87233851 88.40743947 19.80725978 82.48490705 24.6875 76.375 C25.64846279 75.2033787 26.61076183 74.03285243 27.57421875 72.86328125 C49.59465853 46.46175541 49.59465853 46.46175541 57.6875 14.375 C53.35953713 14.375 49.86379312 17.71390919 46.6875 20.375 Z " fill="#FBFDFD" transform="translate(779.3125,531.625)"/>
<path d="M0 0 C2 1.6875 2 1.6875 3 4 C2.76347447 9.47823647 0.84652944 11.73279397 -3.0625 15.4375 C-3.56491211 15.91920654 -4.06732422 16.40091309 -4.58496094 16.8972168 C-7.85423069 20.00824554 -11.21716555 23.00359816 -14.6484375 25.93359375 C-17.95832545 28.84211655 -21.16154803 31.86070271 -24.375 34.875 C-28.71070084 38.94199444 -33.06217109 42.98145374 -37.5 46.9375 C-40.8952612 49.96858301 -44.12888844 53.10475761 -47.3203125 56.34765625 C-48.99369527 57.99379791 -50.72093045 59.53158393 -52.5 61.0625 C-58.47219035 66.2208218 -64.18390518 71.66289307 -69.93505859 77.06445312 C-71.9792146 78.98051707 -74.0299147 80.88934273 -76.08203125 82.796875 C-84.9039171 91.02170525 -93.50882062 99.42339369 -101.93261719 108.05737305 C-102.69606445 108.83250244 -103.45951172 109.60763184 -104.24609375 110.40625 C-104.92341553 111.10041016 -105.6007373 111.79457031 -106.29858398 112.50976562 C-108 114 -108 114 -110 114 C-110 114.66 -110 115.32 -110 116 C-111.4697113 117.45094299 -111.4697113 117.45094299 -113.50170898 119.13500977 C-117.86525443 122.8479199 -121.92894443 126.78410268 -125.97265625 130.83984375 C-126.69940048 131.56563126 -127.42614471 132.29141876 -128.1749115 133.03919983 C-129.69962296 134.56323556 -131.2230915 136.08851569 -132.74536133 137.61499023 C-135.05633891 139.93132463 -137.37260771 142.24227078 -139.68945312 144.55273438 C-141.1800082 146.04395034 -142.670253 147.53547653 -144.16015625 149.02734375 C-144.84263931 149.70780258 -145.52512238 150.38826141 -146.22828674 151.08934021 C-150.12797588 155.00781493 -153.83178385 159.03816897 -157.44456482 163.22218323 C-159.33692016 165.38508986 -161.32556551 167.42340059 -163.375 169.4375 C-164.13296875 170.18773437 -164.8909375 170.93796875 -165.671875 171.7109375 C-167.22395833 173.23697917 -168.77604167 174.76302083 -170.328125 176.2890625 C-174.48162295 180.40017782 -178.42915669 184.58944313 -182.23583984 189.02197266 C-186.0772203 193.32903942 -190.31416281 197.27205146 -194.47851562 201.26367188 C-195.16236328 201.93333984 -195.84621094 202.60300781 -196.55078125 203.29296875 C-197.16606689 203.8861792 -197.78135254 204.47938965 -198.4152832 205.09057617 C-200.22118848 207.2665098 -201.08044007 209.34091773 -202 212 C-197.36954093 216.94030392 -192.60233103 220.98771904 -186.9375 224.6875 C-185.77456421 225.45114868 -185.77456421 225.45114868 -184.58813477 226.23022461 C-145.04988946 251.75431934 -99.80454025 267.58358456 -53.64160156 275.65478516 C-52.88925735 275.79036331 -52.13691315 275.92594147 -51.36177063 276.06562805 C-49.94756024 276.3197518 -48.53155272 276.56413858 -47.11369324 276.79704285 C-43.5420416 277.44453025 -41.15998787 277.96819544 -39 281 C-38.125 283.375 -38.125 283.375 -38 286 C-40.19402985 290.59701493 -40.19402985 290.59701493 -43 292 C-49.79327275 292.51031196 -56.33851546 291.70121642 -63 290.4375 C-63.94222412 290.26041504 -64.88444824 290.08333008 -65.85522461 289.90087891 C-116.98217423 279.88877932 -171.39039698 259.37672381 -212 226 C-214.38153881 228.93356247 -215.87277748 231.74074526 -217.27734375 235.2421875 C-217.91530884 236.82060425 -217.91530884 236.82060425 -218.56616211 238.4309082 C-219.01870361 239.5674585 -219.47124512 240.70400879 -219.9375 241.875 C-220.4126001 243.05215576 -220.8877002 244.22931152 -221.37719727 245.44213867 C-223.75757275 251.34369109 -226.10530835 257.25793409 -228.4360199 263.17926025 C-229.50691308 265.89843962 -230.58227567 268.61584438 -231.65750122 271.33331299 C-232.42382119 273.27779108 -233.18171525 275.22540979 -233.93920898 277.17333984 C-234.41173096 278.37039551 -234.88425293 279.56745117 -235.37109375 280.80078125 C-235.78286865 281.85434814 -236.19464355 282.90791504 -236.61889648 283.9934082 C-238.26726414 287.58182039 -240.18087728 291.18087728 -243 294 C-246.25963068 294.28974495 -248.37441941 294.32124409 -251.3125 292.8125 C-253.49185477 290.47171155 -253.70179464 289.18269452 -254 286 C-253.20166016 282.73144531 -253.20166016 282.73144531 -251.9140625 279.078125 C-251.68457916 278.42144836 -251.45509583 277.76477173 -251.21865845 277.0881958 C-248.79380306 270.23501812 -246.11096147 263.484013 -243.375 256.75 C-242.85524573 255.46036049 -242.33588523 254.17056222 -241.81689453 252.88061523 C-239.18316643 246.34416442 -236.51965644 239.82006155 -233.84375 233.30078125 C-233.34439941 232.08229492 -232.84504883 230.86380859 -232.33056641 229.60839844 C-231.38358783 227.30146841 -230.43293456 224.99604225 -229.47802734 222.69238281 C-226.85829497 216.35072789 -226.85829497 216.35072789 -224.8203125 209.80859375 C-224.54960937 208.88175781 -224.27890625 207.95492187 -224 207 C-223.34 206.67 -222.68 206.34 -222 206 C-221.20515471 204.17690574 -221.20515471 204.17690574 -220.58129883 201.97387695 C-219.13156818 197.37413108 -217.46679189 192.90367891 -215.69921875 188.41796875 C-215.38647003 187.61873489 -215.07372131 186.81950104 -214.75149536 185.99604797 C-213.73219996 183.39239561 -212.70983919 180.78995852 -211.6875 178.1875 C-210.60356157 175.42090799 -209.52040193 172.65401181 -208.4372406 169.88711548 C-207.70098975 168.00661809 -206.96446683 166.1262272 -206.22767639 164.24594116 C-203.02638533 156.07501584 -199.84692398 147.8957169 -196.67202759 139.71450806 C-191.461966 126.29117699 -186.21767011 112.88184042 -180.91357422 99.49536133 C-177.96330556 92.04038807 -175.06477436 84.56815981 -172.21484375 77.07421875 C-171.26462465 74.58765024 -170.31359125 72.10139469 -169.36230469 69.61523438 C-168.75111112 68.01077059 -168.14377889 66.40482998 -167.54052734 64.79736328 C-166.70187478 62.56299012 -165.85031143 60.33392862 -164.99609375 58.10546875 C-164.62967018 57.11253059 -164.62967018 57.11253059 -164.25584412 56.09953308 C-162.77352249 52.27641049 -161.30374895 49.49198628 -158 47 C-156.68 47 -155.36 47 -154 47 C-154 46.34 -154 45.68 -154 45 C-152 45 -152 45 -149.9375 46.6875 C-147.73118845 49.3208396 -147.35253747 50.62205567 -147 54 C-147.58227539 56.45898438 -147.58227539 56.45898438 -148.59765625 59.09375 C-148.97921875 60.10348877 -149.36078125 61.11322754 -149.75390625 62.15356445 C-150.18574219 63.25788818 -150.61757813 64.36221191 -151.0625 65.5 C-151.75638707 67.32033838 -152.45025581 69.14068383 -153.14352417 70.96125793 C-153.89769401 72.93591099 -154.65765356 74.90826526 -155.41845703 76.88037109 C-157.02098599 81.04263432 -158.58921233 85.21734214 -160.15234375 89.39453125 C-167.90334577 110.07669909 -175.90822103 130.65666783 -183.98434448 151.21382141 C-185.35409822 154.70121359 -186.72204767 158.1893108 -188.08917236 161.67773438 C-188.67458116 163.17030516 -189.26089097 164.66252304 -189.84832764 166.15429688 C-190.57783347 168.00787123 -191.30278761 169.86323523 -192.02734375 171.71875 C-192.415271 172.70810547 -192.80319824 173.69746094 -193.20288086 174.71679688 C-194.10987095 176.91164711 -194.10987095 176.91164711 -194 179 C-193.57734863 178.51168701 -193.15469727 178.02337402 -192.71923828 177.52026367 C-188.52591167 172.69845748 -184.24945318 167.97032092 -179.875 163.3125 C-178.91037842 162.28419067 -178.91037842 162.28419067 -177.92626953 161.23510742 C-170.9245214 153.80617186 -163.68889634 146.62495685 -156.421875 139.45703125 C-153.99272293 136.9926173 -151.68265153 134.45325561 -149.375 131.875 C-144.05411876 126.0117594 -138.51455285 120.36891476 -132.9375 114.75 C-132.09171387 113.89132324 -131.24592773 113.03264648 -130.37451172 112.14794922 C-129.57932129 111.35146973 -128.78413086 110.55499023 -127.96484375 109.734375 C-127.2493335 109.01475586 -126.53382324 108.29513672 -125.79663086 107.55371094 C-124 106 -124 106 -122 106 C-121.67 105.01 -121.34 104.02 -121 103 C-119.55664062 101.58007812 -119.55664062 101.58007812 -117.65625 100.03125 C-114.10028652 97.01406886 -110.75113232 93.84088355 -107.46875 90.53125 C-106.98422363 90.04342041 -106.49969727 89.55559082 -106.00048828 89.05297852 C-104.49833277 87.53727454 -102.99872816 86.01909263 -101.5 84.5 C-95.70578697 78.62705616 -89.93654932 72.79950829 -83.65820312 67.43554688 C-81.49358593 65.56158499 -79.49293491 63.55425598 -77.5 61.5 C-74.25227701 58.2137447 -70.91745495 55.13679897 -67.4140625 52.12890625 C-64.13144296 49.23403951 -60.94382992 46.24216488 -57.75 43.25 C-57.10562988 42.64752441 -56.46125977 42.04504883 -55.79736328 41.42431641 C-53.26133038 39.05308444 -50.72547142 36.68169974 -48.1953125 34.30419922 C-46.55100633 32.7608021 -44.9012192 31.22349393 -43.25 29.6875 C-42.30640625 28.80449219 -41.3628125 27.92148437 -40.390625 27.01171875 C-38 25 -38 25 -35 24 C-35 23.34 -35 22.68 -35 22 C-33.48848454 20.64902626 -31.91186687 19.37072655 -30.3125 18.125 C-25.10621863 13.97750901 -20.22388015 9.59018178 -15.41723633 4.98681641 C-10.0906815 -0.04561383 -7.35673012 -1.87262221 0 0 Z " fill="#FBFDFC" transform="translate(410,267)"/>
<path d="M0 0 C2.5625 2.5625 2.5625 2.5625 4 6 C2.01040431 14.41752022 -5.28211751 19.43702912 -11.56640625 24.8515625 C-14.76594648 27.67619674 -17.88065543 30.58737635 -21 33.5 C-25.41865481 37.62489707 -29.86697158 41.69342431 -34.453125 45.6328125 C-35.81785674 46.8390148 -37.10392475 48.1329754 -38.375 49.4375 C-40 51 -40 51 -42 51 C-42 51.66 -42 52.32 -42 53 C-43.29296875 54.26953125 -43.29296875 54.26953125 -45.1875 55.8125 C-49.95590259 59.83610721 -54.27798618 64.24599605 -58.60620117 68.73168945 C-60.03482136 70.19058334 -61.51364992 71.5999677 -63 73 C-63.66 73 -64.32 73 -65 73 C-65.33 73.99 -65.66 74.98 -66 76 C-67.453125 77.4296875 -67.453125 77.4296875 -69.25 78.875 C-72.3687656 81.40037215 -75.17922779 84.15272062 -78 87 C-78.60155914 87.60646362 -79.20311829 88.21292725 -79.82290649 88.83776855 C-81.21683282 90.24335398 -82.61049816 91.64919826 -84.00395203 93.05525208 C-87.21511583 96.29308763 -90.43149959 99.52571595 -93.64819336 102.75805664 C-95.34821079 104.46820781 -97.04643991 106.18013846 -98.74291992 107.89379883 C-101.19245721 110.36746017 -103.64827801 112.83472531 -106.10546875 115.30078125 C-106.86691696 116.07255203 -107.62836517 116.84432281 -108.41288757 117.63948059 C-109.11734512 118.3440892 -109.82180267 119.04869781 -110.54760742 119.7746582 C-111.16762131 120.39911331 -111.78763519 121.02356842 -112.42643738 121.66694641 C-114 123 -114 123 -116 123 C-116.37125 123.86625 -116.37125 123.86625 -116.75 124.75 C-118.18299988 127.32939979 -119.78424676 129.06121592 -122 131 C-122.66 131 -123.32 131 -124 131 C-124.19980469 131.53753906 -124.39960938 132.07507813 -124.60546875 132.62890625 C-126.60698187 136.0320392 -129.37984451 138.33033347 -132.3125 140.9375 C-133.45533531 141.96644006 -134.59727433 142.99637654 -135.73828125 144.02734375 C-136.57045166 144.77866577 -136.57045166 144.77866577 -137.41943359 145.54516602 C-139.68292402 147.62859812 -141.84097631 149.80906956 -144 152 C-144.79921875 152.78761719 -145.5984375 153.57523438 -146.421875 154.38671875 C-147.19015625 155.14597656 -147.9584375 155.90523437 -148.75 156.6875 C-149.91789062 157.83798828 -149.91789062 157.83798828 -151.109375 159.01171875 C-153.05230615 160.8610699 -153.05230615 160.8610699 -154 163 C-154.66 163 -155.32 163 -156 163 C-145.45508607 177.19202702 -128.37480553 185.16304755 -113 193 C-112.20416504 193.40605469 -111.40833008 193.81210937 -110.58837891 194.23046875 C-82.61859983 208.22431339 -51.11721079 216.71692078 -20.29296875 221.26171875 C-16.91783487 222.01842136 -14.7315093 222.88951776 -12 225 C-10.95070186 228.60696236 -10.54494119 230.84718435 -11.9375 234.375 C-15.54993037 237.22115726 -20.03170045 237.17393099 -24.4699707 236.78173828 C-27.22430889 236.3763468 -29.95236352 235.89439731 -32.6875 235.375 C-33.6971582 235.18897217 -34.70681641 235.00294434 -35.74707031 234.8112793 C-38.83611423 234.22924703 -41.91866472 233.62147523 -45 233 C-45.88445801 232.82194824 -46.76891602 232.64389648 -47.68017578 232.46044922 C-77.18440214 226.34655249 -105.44162554 215.11321592 -132 201 C-133.15242188 200.38898438 -134.30484375 199.77796875 -135.4921875 199.1484375 C-143.85403952 194.54088639 -151.55649098 189.22520882 -159.28515625 183.63671875 C-162.10974559 181.60224428 -164.97423101 179.72816825 -168 178 C-169.57270539 181.34946584 -171.13251204 184.70477306 -172.6875 188.0625 C-173.17355713 189.11203857 -173.65961426 190.16157715 -174.16040039 191.24291992 C-177.06352928 197.57797993 -179.83939424 203.94434472 -182.484375 210.390625 C-182.77290848 211.09146713 -183.06144196 211.79230927 -183.35871887 212.51438904 C-184.7829611 215.97930743 -186.19243537 219.44931652 -187.58276367 222.92797852 C-188.10555229 224.20866139 -188.62872722 225.48918665 -189.15234375 226.76953125 C-189.60601318 227.89979736 -190.05968262 229.03006348 -190.52709961 230.19458008 C-192.06274168 233.1195035 -193.11304087 234.4374226 -196 236 C-199.70469294 235.93500539 -202.04578831 235.74547789 -205 233.4375 C-207.0042314 228.55218595 -205.25173141 223.29029429 -203.40869141 218.55712891 C-202.73324791 216.94260676 -202.0469675 215.3325879 -201.3515625 213.7265625 C-200.7994384 212.41839569 -200.7994384 212.41839569 -200.23616028 211.08380127 C-199.04181101 208.26011933 -197.833512 205.4426456 -196.625 202.625 C-195.79079884 200.65941951 -194.95755277 198.6934334 -194.12524414 196.72705078 C-192.10815478 191.96691817 -190.08079445 187.2112562 -188.04925537 182.45727539 C-185.83351998 177.26819351 -183.63649413 172.07119343 -181.4375 166.875 C-181.02274414 165.89821289 -180.60798828 164.92142578 -180.18066406 163.91503906 C-175.6474855 153.21973029 -171.22541781 142.47850003 -166.78704834 131.74362183 C-161.2852197 118.44346222 -155.70510604 105.17851954 -150.0625 91.9375 C-148.63794746 88.59378125 -147.21342584 85.25004935 -145.7890625 81.90625 C-145.45433426 81.12045059 -145.11960602 80.33465118 -144.7747345 79.52503967 C-142.1407552 73.33816499 -139.52560023 67.14372664 -136.9375 60.9375 C-136.38715088 59.6230188 -136.38715088 59.6230188 -135.82568359 58.28198242 C-133.52967522 52.76932754 -131.2905338 47.2357705 -129.08042908 41.68824768 C-127.64983621 38.10275549 -126.20815279 34.52176364 -124.76589966 30.94094849 C-124.05236692 29.16045846 -123.34416801 27.37782073 -122.64157104 25.59298706 C-121.65304567 23.08257331 -120.64673233 20.57995612 -119.63671875 18.078125 C-119.34432312 17.32195389 -119.05192749 16.56578278 -118.75067139 15.78669739 C-116.9262486 11.32822674 -115.23485307 8.62323407 -111 6 C-107.31436232 5.39826324 -105.71401593 5.54229748 -102.5625 7.5625 C-101 10 -101 10 -101.125 13.3125 C-102.87788779 20.69966997 -102.87788779 20.69966997 -104 24 C-104.66 24.33 -105.32 24.66 -106 25 C-106.7103616 26.87695952 -106.7103616 26.87695952 -107.265625 29.1953125 C-109.00587961 35.32526173 -111.42088234 41.08970969 -113.92385864 46.94293213 C-114.77680214 48.93768122 -115.6234279 50.93501224 -116.46850586 52.93310547 C-117.37232777 55.06998772 -118.27649637 57.20671505 -119.18247986 59.34268188 C-123.31831487 69.09520246 -127.38057693 78.87842966 -131.44848633 88.65942383 C-131.75810806 89.40387253 -132.0677298 90.14832123 -132.38673401 90.91532898 C-133.00698631 92.40675074 -133.62713474 93.89821569 -134.24717712 95.38972473 C-136.06786378 99.76725112 -137.89647964 104.14135326 -139.73225403 108.51257324 C-140.87002171 111.22351883 -142.00373293 113.93614914 -143.13668823 116.64910889 C-143.66598946 117.91377594 -144.19714674 119.17766796 -144.73025513 120.44073486 C-145.45910266 122.16810032 -146.18091498 123.89842924 -146.90234375 125.62890625 C-147.30960693 126.59900635 -147.71687012 127.56910645 -148.13647461 128.56860352 C-149.16733775 131.04113555 -149.16733775 131.04113555 -149 134 C-148.31539703 133.31095581 -147.63079407 132.62191162 -146.92544556 131.9119873 C-140.48561061 125.43167908 -134.04055432 118.956605 -127.59029579 112.48667145 C-124.2740069 109.15992755 -120.95961123 105.83134143 -117.64941406 102.49853516 C-114.45721612 99.28466998 -111.26021392 96.07565824 -108.05976486 92.87001038 C-106.83715371 91.64369244 -105.61630956 90.41561031 -104.39723587 89.18577576 C-102.69470519 87.46881152 -100.98610433 85.75812297 -99.27587891 84.04882812 C-98.76877884 83.53453751 -98.26167877 83.02024689 -97.73921204 82.4903717 C-94.22810432 79 -94.22810432 79 -92 79 C-92 78.34 -92 77.68 -92 77 C-90.56640625 75.58984375 -90.56640625 75.58984375 -88.5625 73.9375 C-83.77948698 69.87025478 -79.39946343 65.4745396 -75 61 C-70.11131196 56.02788725 -65.19191041 51.19432251 -59.90234375 46.6484375 C-56.86026502 44.0123857 -53.93583185 41.25309511 -51 38.5 C-46.71832827 34.50388637 -42.41389691 30.55412925 -37.9765625 26.73046875 C-35.50842377 24.56962793 -33.10195991 22.34562298 -30.6875 20.125 C-26.06874247 15.91038375 -21.31799126 11.9071108 -16.453125 7.98046875 C-14.42589527 6.34383583 -12.42534654 4.68387972 -10.4375 3 C-6.83475937 0.04390512 -4.68164639 -0.6554305 0 0 Z " fill="#FCFDFD" transform="translate(555,515)"/>
<path d="M0 0 C2.3125 1.625 2.3125 1.625 4 4 C4.56288002 7.94016013 4.60396028 10.05782196 2.4375 13.4375 C-0.94217804 15.60396028 -3.05983987 15.56288002 -7 15 C-9.71604883 13.07017583 -10.74692606 11.65799225 -11.9375 8.5625 C-12.02066111 5.1528946 -11.08657139 3.66217729 -9 1 C-5.8288561 -1.32550553 -3.67206848 -1.28522397 0 0 Z " fill="#F8FCFA" transform="translate(669,608)"/>
<path d="M0 0 C2.73883355 1.59029045 2.94967699 2.83465297 3.875 5.875 C4.02524355 9.63108863 3.28344384 11.06414363 1 14 C-2 16 -2 16 -4.9375 15.9375 C-8.85103807 14.73947814 -10.05103541 13.58609485 -12 10 C-11.94021398 6.53241058 -11.60965977 4.11173251 -9.9375 1.0625 C-6.74841596 -0.68635254 -3.54329495 -0.53260383 0 0 Z " fill="#F6FBF9" transform="translate(460,397)"/>
<path d="M0 0 C4.11289267 0.85685264 5.59686932 2.20235933 8 5.625 C8.06641554 9.47710127 7.87229157 11.62348005 5.3125 14.5625 C2.32212452 15.9364563 0.2617339 15.96476395 -3 15.625 C-6.7 14.225 -6.7 14.225 -8 11.625 C-8.54035146 7.57236402 -8.34199395 6.08769769 -5.875 2.75 C-3 0.625 -3 0.625 0 0 Z " fill="#F8FCFA" transform="translate(550,607.375)"/>
<path d="M0 0 C0 4.09860436 -1.61626555 5.10795632 -4.375 8.0625 C-5.59316406 9.37927734 -5.59316406 9.37927734 -6.8359375 10.72265625 C-8.20663219 12.16510211 -9.59297228 13.59297228 -11 15 C-11.99 14.67 -12.98 14.34 -14 14 C-9.38 9.38 -4.76 4.76 0 0 Z " fill="#ECF6F0" transform="translate(834,441)"/>
<path d="M0 0 C0.66 0.33 1.32 0.66 2 1 C-2.29 5.29 -6.58 9.58 -11 14 C-11 10.09572976 -9.78171026 9.2747714 -7.1875 6.4375 C-6.47980469 5.65246094 -5.77210938 4.86742187 -5.04296875 4.05859375 C-3 2 -3 2 0 0 Z " fill="#F0F9F5" transform="translate(583,636)"/>
<path d="M0 0 C0 0.33 0 0.66 0 1 C-1.03125 1.226875 -2.0625 1.45375 -3.125 1.6875 C-7.34408258 2.86471856 -9.81536784 5.04838971 -13 8 C-10.26980851 1.62955318 -6.85077044 -1.62255089 0 0 Z " fill="#EDF8F2" transform="translate(447,433)"/>
<path d="M0 0 C0 0.33 0 0.66 0 1 C-0.886875 1.2475 -1.77375 1.495 -2.6875 1.75 C-6.10427135 3.03934768 -8.2797748 4.59980129 -11 7 C-10.63802104 4.37565253 -10.17343943 3.17986311 -8.3125 1.25 C-5.39572708 -0.32663401 -3.26709987 -0.22275681 0 0 Z " fill="#F1FAF5" transform="translate(450,521)"/>
<path d="M0 0 C0.66 0.66 1.32 1.32 2 2 C1.96712417 4.72869407 1.43602229 7.2966618 1 10 C-0.5625 8.875 -0.5625 8.875 -2 7 C-1.56521739 1.56521739 -1.56521739 1.56521739 0 0 Z " fill="#F0FBF6" transform="translate(772,544)"/>
<path d="M0 0 C0.66 0.33 1.32 0.66 2 1 C1.01 1 0.02 1 -1 1 C-0.67 0.67 -0.34 0.34 0 0 Z " fill="#F2FCF8" transform="translate(197,494)"/>
<path d="M0 0 C0.99 0.495 0.99 0.495 2 1 C1.67 1.66 1.34 2.32 1 3 C0.67 2.01 0.34 1.02 0 0 Z " fill="#F0F9F6" transform="translate(691,477)"/>
<path d="M0 0 C0.33 0.99 0.66 1.98 1 3 C0.34 2.67 -0.32 2.34 -1 2 C-0.67 1.34 -0.34 0.68 0 0 Z " fill="#F4FDF8" transform="translate(526,474)"/>
<path d="M0 0 C0.99 0.33 1.98 0.66 3 1 C2.01 1 1.02 1 0 1 C0 0.67 0 0.34 0 0 Z " fill="#EBFAF3" transform="translate(372,432)"/>
<path d="" fill="#E7F6EF" transform="translate(0,0)"/>
<path d="" fill="#EFFBF6" transform="translate(0,0)"/>
<path d="M0 0 C0.66 0 1.32 0 2 0 C1.67 0.66 1.34 1.32 1 2 C0.67 1.34 0.34 0.68 0 0 Z " fill="#D2EDE0" transform="translate(834,649)"/>
<path d="M0 0 C0.33 0.66 0.66 1.32 1 2 C0.34 1.67 -0.32 1.34 -1 1 C-0.67 0.67 -0.34 0.34 0 0 Z " fill="#F4FDFA" transform="translate(725,617)"/>
<path d="M0 0 C0.66 0.66 1.32 1.32 2 2 C1.34 2 0.68 2 0 2 C0 1.34 0 0.68 0 0 Z " fill="#F6FDFA" transform="translate(483,569)"/>
<path d="M0 0 C0.66 0 1.32 0 2 0 C1.67 0.66 1.34 1.32 1 2 C0.67 1.34 0.34 0.68 0 0 Z " fill="#EAF8F1" transform="translate(834,548)"/>
<path d="M0 0 C3 1 3 1 3 1 Z " fill="#EDF9F4" transform="translate(792,493)"/>
<path d="M0 0 C0.99 0.495 0.99 0.495 2 1 C1.01 1.495 1.01 1.495 0 2 C0 1.34 0 0.68 0 0 Z " fill="#EFFAF7" transform="translate(616,457)"/>
<path d="M0 0 C2 1 2 1 2 1 Z " fill="#E3F6EE" transform="translate(458,733)"/>
<path d="M0 0 C2 1 2 1 2 1 Z " fill="#D9EFE2" transform="translate(797,699)"/>
<path d="" fill="#EEFBF6" transform="translate(0,0)"/>
<path d="" fill="#EFFBF7" transform="translate(0,0)"/>
<path d="" fill="#F0FDF6" transform="translate(0,0)"/>
<path d="M0 0 C2 1 2 1 2 1 Z " fill="#F0FBF6" transform="translate(603,680)"/>
<path d="M0 0 C2 1 2 1 2 1 Z " fill="#F2FCF8" transform="translate(758,610)"/>
<path d="M0 0 C2 1 2 1 2 1 Z " fill="#E3F4EC" transform="translate(821,609)"/>
<path d="M0 0 C2 1 2 1 2 1 Z " fill="#F6FEFB" transform="translate(736,603)"/>
<path d="" fill="#F5FCFA" transform="translate(0,0)"/>
<path d="" fill="#F6FDFA" transform="translate(0,0)"/>
<path d="" fill="#F2FCF7" transform="translate(0,0)"/>
<path d="" fill="#F2FDF8" transform="translate(0,0)"/>
<path d="" fill="#EBF8F3" transform="translate(0,0)"/>
<path d="M0 0 C2 1 2 1 2 1 Z " fill="#E0F3E9" transform="translate(839,529)"/>
<path d="M0 0 C2 1 2 1 2 1 Z " fill="#F3FDF9" transform="translate(532,526)"/>
<path d="M0 0 C2 1 2 1 2 1 Z " fill="#F1FDF8" transform="translate(484,510)"/>
<path d="M0 0 C2 1 2 1 2 1 Z " fill="#EFFBF4" transform="translate(436,495)"/>
<path d="M0 0 C2 1 2 1 2 1 Z " fill="#F1FDF8" transform="translate(532,494)"/>
<path d="M0 0 C2 1 2 1 2 1 Z " fill="#EBF9F2" transform="translate(796,492)"/>
<path d="" fill="#F2FDF8" transform="translate(0,0)"/>
<path d="" fill="#F2FDF9" transform="translate(0,0)"/>
<path d="" fill="#F6FDFA" transform="translate(0,0)"/>
<path d="M0 0 C2 1 2 1 2 1 Z " fill="#F6FFFA" transform="translate(210,480)"/>
<path d="" fill="#F2FEF9" transform="translate(0,0)"/>
<path d="" fill="#F2FDFA" transform="translate(0,0)"/>
<path d="M0 0 C2 1 2 1 2 1 Z " fill="#F5FDF8" transform="translate(441,475)"/>
<path d="" fill="#F5FDF8" transform="translate(0,0)"/>
<path d="" fill="#F3FBF8" transform="translate(0,0)"/>
<path d="M0 0 C2 1 2 1 2 1 Z " fill="#F4FCF7" transform="translate(735,459)"/>
<path d="" fill="#EAF8F2" transform="translate(0,0)"/>
<path d="" fill="#F2FAF7" transform="translate(0,0)"/>
<path d="" fill="#EBF8F2" transform="translate(0,0)"/>
<path d="" fill="#F7FEFB" transform="translate(0,0)"/>
<path d="M0 0 C2 1 2 1 2 1 Z " fill="#E9F9F0" transform="translate(434,435)"/>
<path d="M0 0 C2 1 2 1 2 1 Z " fill="#DFF3E8" transform="translate(657,426)"/>
<path d="" fill="#EEF9F3" transform="translate(0,0)"/>
<path d="" fill="#548563" transform="translate(0,0)"/>
<path d="" fill="#5E8D6B" transform="translate(0,0)"/>
<path d="" fill="#5A8767" transform="translate(0,0)"/>
<path d="" fill="#CCE8DA" transform="translate(0,0)"/>
<path d="" fill="#DEF3EA" transform="translate(0,0)"/>
<path d="" fill="#CAE7D7" transform="translate(0,0)"/>
<path d="" fill="#E4F4E9" transform="translate(0,0)"/>
<path d="" fill="#C5E2D2" transform="translate(0,0)"/>
<path d="" fill="#E0F3E9" transform="translate(0,0)"/>
<path d="" fill="#C8E6D3" transform="translate(0,0)"/>
<path d="" fill="#E2F1EA" transform="translate(0,0)"/>
<path d="" fill="#CAE7D4" transform="translate(0,0)"/>
<path d="" fill="#E0F4EA" transform="translate(0,0)"/>
<path d="" fill="#DEF3EB" transform="translate(0,0)"/>
<path d="" fill="#CFEADC" transform="translate(0,0)"/>
<path d="" fill="#DCF3E6" transform="translate(0,0)"/>
<path d="" fill="#E0F2E8" transform="translate(0,0)"/>
<path d="" fill="#ECFAF5" transform="translate(0,0)"/>
<path d="" fill="#ECFAF3" transform="translate(0,0)"/>
<path d="" fill="#E9F9F2" transform="translate(0,0)"/>
<path d="" fill="#EAF9F1" transform="translate(0,0)"/>
<path d="" fill="#EAFAF1" transform="translate(0,0)"/>
<path d="" fill="#EAF8F3" transform="translate(0,0)"/>
<path d="" fill="#E5F8F0" transform="translate(0,0)"/>
<path d="" fill="#ECFCF3" transform="translate(0,0)"/>
<path d="" fill="#EDFBF5" transform="translate(0,0)"/>
<path d="" fill="#E4F5EC" transform="translate(0,0)"/>
<path d="" fill="#E7F9EF" transform="translate(0,0)"/>
<path d="" fill="#E8F7F2" transform="translate(0,0)"/>
<path d="" fill="#EEFBF6" transform="translate(0,0)"/>
<path d="" fill="#EFFBF6" transform="translate(0,0)"/>
<path d="" fill="#EDFBF4" transform="translate(0,0)"/>
<path d="" fill="#D7EEE1" transform="translate(0,0)"/>
<path d="" fill="#E0F3EA" transform="translate(0,0)"/>
<path d="" fill="#EDFBF6" transform="translate(0,0)"/>
<path d="" fill="#DAEFE3" transform="translate(0,0)"/>
<path d="" fill="#E3F5EC" transform="translate(0,0)"/>
<path d="" fill="#E2F3EC" transform="translate(0,0)"/>
<path d="" fill="#E3F5ED" transform="translate(0,0)"/>
<path d="" fill="#E8F5EE" transform="translate(0,0)"/>
<path d="" fill="#E5F7EE" transform="translate(0,0)"/>
<path d="" fill="#D9EEE4" transform="translate(0,0)"/>
<path d="" fill="#E1F5EC" transform="translate(0,0)"/>
<path d="" fill="#EAF9F0" transform="translate(0,0)"/>
<path d="" fill="#EFFAF6" transform="translate(0,0)"/>
<path d="" fill="#F3FEF8" transform="translate(0,0)"/>
<path d="" fill="#E3F5ED" transform="translate(0,0)"/>
<path d="" fill="#E7F8ED" transform="translate(0,0)"/>
<path d="" fill="#E4F7EF" transform="translate(0,0)"/>
<path d="" fill="#EAF9F2" transform="translate(0,0)"/>
<path d="" fill="#EAF8F2" transform="translate(0,0)"/>
<path d="" fill="#F3FBF7" transform="translate(0,0)"/>
<path d="" fill="#ECFBF4" transform="translate(0,0)"/>
<path d="" fill="#E9F7F1" transform="translate(0,0)"/>
<path d="" fill="#E8F6F1" transform="translate(0,0)"/>
<path d="" fill="#EFFBF5" transform="translate(0,0)"/>
<path d="" fill="#EDF9F4" transform="translate(0,0)"/>
<path d="" fill="#EFF8F4" transform="translate(0,0)"/>
<path d="" fill="#EFF9F5" transform="translate(0,0)"/>
<path d="" fill="#F0FCF6" transform="translate(0,0)"/>
<path d="" fill="#ECF7F4" transform="translate(0,0)"/>
<path d="" fill="#EDFAF5" transform="translate(0,0)"/>
<path d="" fill="#EFFAF6" transform="translate(0,0)"/>
<path d="" fill="#F0FBF7" transform="translate(0,0)"/>
<path d="" fill="#D2EDDE" transform="translate(0,0)"/>
<path d="" fill="#EFF9F3" transform="translate(0,0)"/>
<path d="" fill="#F3FBF8" transform="translate(0,0)"/>
<path d="" fill="#F1FBF6" transform="translate(0,0)"/>
<path d="" fill="#EAF8F1" transform="translate(0,0)"/>
<path d="" fill="#F0FCF8" transform="translate(0,0)"/>
<path d="" fill="#F3FDF9" transform="translate(0,0)"/>
<path d="" fill="#EEFBF4" transform="translate(0,0)"/>
<path d="" fill="#F2FDF8" transform="translate(0,0)"/>
<path d="" fill="#F3FDF9" transform="translate(0,0)"/>
<path d="" fill="#E8F8F1" transform="translate(0,0)"/>
<path d="" fill="#F4FBFA" transform="translate(0,0)"/>
<path d="" fill="#ECFDF4" transform="translate(0,0)"/>
<path d="" fill="#ECFCF4" transform="translate(0,0)"/>
<path d="" fill="#EDF8F2" transform="translate(0,0)"/>
<path d="" fill="#EAFAF2" transform="translate(0,0)"/>
<path d="" fill="#F3FCF9" transform="translate(0,0)"/>
<path d="" fill="#F1FBF9" transform="translate(0,0)"/>
<path d="" fill="#EDFAF2" transform="translate(0,0)"/>
<path d="" fill="#F2FCF7" transform="translate(0,0)"/>
<path d="" fill="#F1FCF9" transform="translate(0,0)"/>
<path d="" fill="#E3F5EA" transform="translate(0,0)"/>
<path d="" fill="#F2FDF8" transform="translate(0,0)"/>
<path d="" fill="#F1FDF9" transform="translate(0,0)"/>
<path d="" fill="#EFF8F2" transform="translate(0,0)"/>
<path d="" fill="#EDFBF4" transform="translate(0,0)"/>
<path d="" fill="#F4FEF9" transform="translate(0,0)"/>
<path d="" fill="#EDF9F2" transform="translate(0,0)"/>
<path d="" fill="#EAF9F3" transform="translate(0,0)"/>
<path d="" fill="#F2FCF7" transform="translate(0,0)"/>
<path d="" fill="#EAFAF2" transform="translate(0,0)"/>
<path d="" fill="#D3EDE1" transform="translate(0,0)"/>
<path d="" fill="#F3FEF9" transform="translate(0,0)"/>
<path d="" fill="#F3FCFA" transform="translate(0,0)"/>
<path d="" fill="#F2FCF8" transform="translate(0,0)"/>
<path d="" fill="#E6F9F0" transform="translate(0,0)"/>
<path d="" fill="#EAFAF3" transform="translate(0,0)"/>
<path d="" fill="#ECFBF3" transform="translate(0,0)"/>
<path d="" fill="#EAF8F1" transform="translate(0,0)"/>
<path d="" fill="#ECF8F2" transform="translate(0,0)"/>
<path d="" fill="#F8FEFC" transform="translate(0,0)"/>
<path d="" fill="#F5FEF9" transform="translate(0,0)"/>
<path d="" fill="#EBF9F2" transform="translate(0,0)"/>
<path d="" fill="#F9FFFC" transform="translate(0,0)"/>
<path d="" fill="#F2FDF9" transform="translate(0,0)"/>
<path d="" fill="#F7FDFA" transform="translate(0,0)"/>
<path d="" fill="#E9FAF0" transform="translate(0,0)"/>
<path d="" fill="#F8FFFB" transform="translate(0,0)"/>
<path d="" fill="#F9FFFB" transform="translate(0,0)"/>
<path d="" fill="#EBF9F0" transform="translate(0,0)"/>
<path d="" fill="#F9FFFC" transform="translate(0,0)"/>
<path d="" fill="#F1FCF7" transform="translate(0,0)"/>
<path d="" fill="#F5FDFC" transform="translate(0,0)"/>
<path d="" fill="#F5FEF9" transform="translate(0,0)"/>
<path d="" fill="#FAFFFC" transform="translate(0,0)"/>
<path d="" fill="#F7FFFE" transform="translate(0,0)"/>
<path d="" fill="#F8FFFB" transform="translate(0,0)"/>
<path d="" fill="#F7FFF9" transform="translate(0,0)"/>
<path d="" fill="#F5FFFC" transform="translate(0,0)"/>
<path d="" fill="#E8F9F0" transform="translate(0,0)"/>
<path d="" fill="#F4FEFA" transform="translate(0,0)"/>
<path d="" fill="#F3FEF8" transform="translate(0,0)"/>
<path d="" fill="#F3FCF7" transform="translate(0,0)"/>
<path d="" fill="#E8F9F1" transform="translate(0,0)"/>
<path d="" fill="#F4FCF8" transform="translate(0,0)"/>
<path d="" fill="#F3FBF8" transform="translate(0,0)"/>
<path d="" fill="#E8F5F0" transform="translate(0,0)"/>
<path d="" fill="#F4FCF7" transform="translate(0,0)"/>
<path d="" fill="#F3FBFA" transform="translate(0,0)"/>
<path d="" fill="#F4FBF8" transform="translate(0,0)"/>
<path d="" fill="#F7FEFB" transform="translate(0,0)"/>
<path d="" fill="#E5F8ED" transform="translate(0,0)"/>
<path d="" fill="#F3FDF9" transform="translate(0,0)"/>
<path d="" fill="#EAF9F2" transform="translate(0,0)"/>
<path d="" fill="#F5FEFC" transform="translate(0,0)"/>
<path d="" fill="#F4FEF9" transform="translate(0,0)"/>
<path d="" fill="#F5FFFA" transform="translate(0,0)"/>
<path d="" fill="#F2FDF8" transform="translate(0,0)"/>
<path d="" fill="#F2FEFA" transform="translate(0,0)"/>
<path d="" fill="#F7FDFA" transform="translate(0,0)"/>
<path d="" fill="#F4FDFA" transform="translate(0,0)"/>
<path d="" fill="#EDFAF5" transform="translate(0,0)"/>
<path d="" fill="#F3FEF8" transform="translate(0,0)"/>
<path d="" fill="#E6F3EB" transform="translate(0,0)"/>
<path d="" fill="#F4FFF9" transform="translate(0,0)"/>
<path d="" fill="#F4FCF9" transform="translate(0,0)"/>
<path d="" fill="#EFFBF4" transform="translate(0,0)"/>
<path d="" fill="#F8FFFD" transform="translate(0,0)"/>
<path d="" fill="#F2F9F5" transform="translate(0,0)"/>
<path d="" fill="#F4FDFA" transform="translate(0,0)"/>
<path d="" fill="#F0FCF6" transform="translate(0,0)"/>
<path d="" fill="#F7FDFB" transform="translate(0,0)"/>
<path d="" fill="#F5FDF8" transform="translate(0,0)"/>
<path d="" fill="#F3FDF9" transform="translate(0,0)"/>
<path d="" fill="#EBFBF4" transform="translate(0,0)"/>
<path d="" fill="#F5FEFC" transform="translate(0,0)"/>
<path d="" fill="#F3FCF8" transform="translate(0,0)"/>
<path d="" fill="#E0F3E8" transform="translate(0,0)"/>
<path d="" fill="#F0FAF6" transform="translate(0,0)"/>
<path d="" fill="#F2FBF7" transform="translate(0,0)"/>
<path d="" fill="#F5FAFA" transform="translate(0,0)"/>
<path d="" fill="#F3FCF8" transform="translate(0,0)"/>
<path d="" fill="#DEF2E8" transform="translate(0,0)"/>
<path d="" fill="#DDF1E5" transform="translate(0,0)"/>
<path d="" fill="#F1FCF8" transform="translate(0,0)"/>
<path d="" fill="#F3FDF8" transform="translate(0,0)"/>
<path d="" fill="#EFFBF6" transform="translate(0,0)"/>
<path d="" fill="#F1FBF9" transform="translate(0,0)"/>
<path d="" fill="#EEFAF6" transform="translate(0,0)"/>
<path d="" fill="#F2FBF7" transform="translate(0,0)"/>
<path d="" fill="#EDF8F3" transform="translate(0,0)"/>
<path d="" fill="#F3FDF6" transform="translate(0,0)"/>
<path d="" fill="#F6FDFB" transform="translate(0,0)"/>
<path d="" fill="#F5FEF9" transform="translate(0,0)"/>
<path d="" fill="#F6FFFB" transform="translate(0,0)"/>
<path d="" fill="#F2F9F8" transform="translate(0,0)"/>
<path d="" fill="#F1FCF7" transform="translate(0,0)"/>
<path d="" fill="#F2FDF8" transform="translate(0,0)"/>
<path d="" fill="#F3FEF8" transform="translate(0,0)"/>
<path d="" fill="#F0FCF7" transform="translate(0,0)"/>
<path d="" fill="#EFFCF7" transform="translate(0,0)"/>
<path d="" fill="#F7FEFB" transform="translate(0,0)"/>
<path d="" fill="#C8E3D4" transform="translate(0,0)"/>
<path d="" fill="#D9F1E4" transform="translate(0,0)"/>
<path d="" fill="#EFFDF6" transform="translate(0,0)"/>
<path d="" fill="#E8F8F1" transform="translate(0,0)"/>
<path d="" fill="#D3EDDE" transform="translate(0,0)"/>
<path d="" fill="#EAF9F2" transform="translate(0,0)"/>
<path d="" fill="#D4EDDF" transform="translate(0,0)"/>
<path d="" fill="#ECFBF3" transform="translate(0,0)"/>
<path d="" fill="#E8F8F2" transform="translate(0,0)"/>
<path d="" fill="#D5EFE2" transform="translate(0,0)"/>
<path d="" fill="#F3FCF7" transform="translate(0,0)"/>
<path d="" fill="#D2E9DB" transform="translate(0,0)"/>
<path d="" fill="#EFFAF6" transform="translate(0,0)"/>
<path d="" fill="#EAF8F1" transform="translate(0,0)"/>
<path d="" fill="#D5ECDF" transform="translate(0,0)"/>
<path d="" fill="#EDFCF6" transform="translate(0,0)"/>
<path d="" fill="#D9EDE0" transform="translate(0,0)"/>
<path d="" fill="#D6EDE1" transform="translate(0,0)"/>
<path d="" fill="#F1FDF9" transform="translate(0,0)"/>
<path d="" fill="#F0FCF7" transform="translate(0,0)"/>
<path d="" fill="#EEF8F3" transform="translate(0,0)"/>
<path d="" fill="#EEFBF5" transform="translate(0,0)"/>
<path d="" fill="#EAF8F2" transform="translate(0,0)"/>
<path d="" fill="#EEF9F4" transform="translate(0,0)"/>
<path d="" fill="#F1FCF7" transform="translate(0,0)"/>
<path d="" fill="#F0F9F6" transform="translate(0,0)"/>
<path d="" fill="#EFFDF8" transform="translate(0,0)"/>
<path d="" fill="#F0F9F8" transform="translate(0,0)"/>
<path d="" fill="#EDF8F5" transform="translate(0,0)"/>
<path d="" fill="#F2FAF5" transform="translate(0,0)"/>
<path d="" fill="#F3FDF9" transform="translate(0,0)"/>
<path d="" fill="#E8F7F1" transform="translate(0,0)"/>
<path d="" fill="#E5F7EF" transform="translate(0,0)"/>
<path d="" fill="#ECFBF4" transform="translate(0,0)"/>
<path d="" fill="#E8F9F0" transform="translate(0,0)"/>
<path d="" fill="#ECFBF5" transform="translate(0,0)"/>
<path d="" fill="#F1FCF8" transform="translate(0,0)"/>
<path d="" fill="#E5F6ED" transform="translate(0,0)"/>
<path d="" fill="#EDFBF6" transform="translate(0,0)"/>
<path d="" fill="#EEFCF7" transform="translate(0,0)"/>
<path d="" fill="#E9F9F1" transform="translate(0,0)"/>
<path d="" fill="#E8F8F3" transform="translate(0,0)"/>
<path d="" fill="#DEF1E6" transform="translate(0,0)"/>
<path d="" fill="#E9F8F1" transform="translate(0,0)"/>
<path d="" fill="#EEFCF6" transform="translate(0,0)"/>
<path d="" fill="#ECF9F3" transform="translate(0,0)"/>
<path d="" fill="#EBFCF2" transform="translate(0,0)"/>
<path d="" fill="#EDFBF5" transform="translate(0,0)"/>
<path d="" fill="#F0FCF7" transform="translate(0,0)"/>
<path d="" fill="#EDFAF1" transform="translate(0,0)"/>
<path d="" fill="#F1FDF7" transform="translate(0,0)"/>
<path d="" fill="#F0FDF8" transform="translate(0,0)"/>
<path d="" fill="#EEFCF6" transform="translate(0,0)"/>
<path d="" fill="#F2FDF9" transform="translate(0,0)"/>
<path d="" fill="#F2FCF8" transform="translate(0,0)"/>
<path d="" fill="#E8FAF0" transform="translate(0,0)"/>
<path d="" fill="#F1FBF5" transform="translate(0,0)"/>
<path d="" fill="#F1FCF8" transform="translate(0,0)"/>
<path d="" fill="#ECFBF5" transform="translate(0,0)"/>
<path d="" fill="#ECFBF7" transform="translate(0,0)"/>
<path d="" fill="#F3FEF8" transform="translate(0,0)"/>
<path d="" fill="#F0FCF8" transform="translate(0,0)"/>
<path d="" fill="#F1FCF9" transform="translate(0,0)"/>
<path d="" fill="#EAFAF3" transform="translate(0,0)"/>
<path d="" fill="#EDFAF1" transform="translate(0,0)"/>
<path d="" fill="#E8F7F3" transform="translate(0,0)"/>
<path d="" fill="#EAFBF4" transform="translate(0,0)"/>
<path d="" fill="#EFFDF9" transform="translate(0,0)"/>
<path d="" fill="#F0FDF7" transform="translate(0,0)"/>
<path d="" fill="#F2FDFA" transform="translate(0,0)"/>
<path d="" fill="#F4FAF8" transform="translate(0,0)"/>
<path d="" fill="#F0F9F4" transform="translate(0,0)"/>
<path d="" fill="#EEFBF6" transform="translate(0,0)"/>
<path d="" fill="#F2FCF7" transform="translate(0,0)"/>
<path d="" fill="#E8F7EE" transform="translate(0,0)"/>
<path d="" fill="#E9F8F2" transform="translate(0,0)"/>
<path d="" fill="#EAF6F2" transform="translate(0,0)"/>
<path d="" fill="#F3FBF9" transform="translate(0,0)"/>
<path d="" fill="#F2FCFA" transform="translate(0,0)"/>
<path d="" fill="#F1FDF8" transform="translate(0,0)"/>
<path d="" fill="#ECFCF4" transform="translate(0,0)"/>
<path d="" fill="#F2FBF7" transform="translate(0,0)"/>
<path d="" fill="#F1FEF7" transform="translate(0,0)"/>
<path d="" fill="#EEFCF5" transform="translate(0,0)"/>
<path d="" fill="#EDFDF5" transform="translate(0,0)"/>
<path d="" fill="#F2FDFA" transform="translate(0,0)"/>
<path d="" fill="#E7F8EF" transform="translate(0,0)"/>
<path d="" fill="#F1FCF7" transform="translate(0,0)"/>
<path d="" fill="#F0FCF7" transform="translate(0,0)"/>
<path d="" fill="#F6FCF9" transform="translate(0,0)"/>
<path d="" fill="#ECF9F4" transform="translate(0,0)"/>
<path d="" fill="#EDFBF4" transform="translate(0,0)"/>
<path d="" fill="#F2FCF7" transform="translate(0,0)"/>
<path d="" fill="#F0FAF6" transform="translate(0,0)"/>
<path d="" fill="#F1FBF7" transform="translate(0,0)"/>
<path d="" fill="#F2FAF7" transform="translate(0,0)"/>
<path d="" fill="#F1F9F4" transform="translate(0,0)"/>
<path d="" fill="#F1FCF7" transform="translate(0,0)"/>
<path d="" fill="#F6FEFB" transform="translate(0,0)"/>
<path d="" fill="#F5FDF8" transform="translate(0,0)"/>
<path d="" fill="#F3FEFB" transform="translate(0,0)"/>
<path d="" fill="#F5FDFB" transform="translate(0,0)"/>
<path d="" fill="#F1FCF9" transform="translate(0,0)"/>
<path d="" fill="#F4FEF9" transform="translate(0,0)"/>
<path d="" fill="#ECFBF5" transform="translate(0,0)"/>
<path d="" fill="#F1FDF9" transform="translate(0,0)"/>
<path d="" fill="#F4FEF9" transform="translate(0,0)"/>
<path d="" fill="#F3FDFA" transform="translate(0,0)"/>
<path d="" fill="#F9FDFC" transform="translate(0,0)"/>
<path d="" fill="#F4FCF9" transform="translate(0,0)"/>
<path d="" fill="#F3FDF9" transform="translate(0,0)"/>
<path d="" fill="#F4FEFA" transform="translate(0,0)"/>
<path d="" fill="#F8FDFB" transform="translate(0,0)"/>
<path d="" fill="#F4FDF9" transform="translate(0,0)"/>
<path d="" fill="#F2FCF8" transform="translate(0,0)"/>
<path d="" fill="#F5FDFB" transform="translate(0,0)"/>
<path d="" fill="#F3FDF9" transform="translate(0,0)"/>
<path d="" fill="#F8FCFA" transform="translate(0,0)"/>
<path d="" fill="#F8FDFC" transform="translate(0,0)"/>
<path d="" fill="#F4FCFB" transform="translate(0,0)"/>
<path d="" fill="#F1FCF9" transform="translate(0,0)"/>
<path d="" fill="#F3FEF7" transform="translate(0,0)"/>
<path d="" fill="#F5FDFA" transform="translate(0,0)"/>
<path d="" fill="#F2FDFA" transform="translate(0,0)"/>
<path d="" fill="#F2FCF7" transform="translate(0,0)"/>
<path d="" fill="#F2FCF7" transform="translate(0,0)"/>
<path d="" fill="#F2FDFA" transform="translate(0,0)"/>
<path d="" fill="#EFFBF6" transform="translate(0,0)"/>
<path d="" fill="#F3FEF9" transform="translate(0,0)"/>
<path d="" fill="#F2FEF9" transform="translate(0,0)"/>
<path d="" fill="#F5FCFC" transform="translate(0,0)"/>
<path d="" fill="#F2FEF8" transform="translate(0,0)"/>
<path d="" fill="#F6FDFB" transform="translate(0,0)"/>
<path d="" fill="#F3FEFA" transform="translate(0,0)"/>
<path d="" fill="#F1FCF7" transform="translate(0,0)"/>
<path d="" fill="#F7FDFB" transform="translate(0,0)"/>
<path d="" fill="#F2FEF8" transform="translate(0,0)"/>
<path d="" fill="#EBFAF2" transform="translate(0,0)"/>
<path d="" fill="#EDFAF4" transform="translate(0,0)"/>
<path d="" fill="#EDFCF5" transform="translate(0,0)"/>
<path d="" fill="#F4FBF9" transform="translate(0,0)"/>
<path d="" fill="#F2FEF9" transform="translate(0,0)"/>
<path d="" fill="#EFF9F6" transform="translate(0,0)"/>
<path d="" fill="#F3FBF8" transform="translate(0,0)"/>
<path d="" fill="#F3FCF9" transform="translate(0,0)"/>
<path d="" fill="#F1FCF9" transform="translate(0,0)"/>
<path d="" fill="#FAFDFA" transform="translate(0,0)"/>
<path d="" fill="#F3FFFA" transform="translate(0,0)"/>
<path d="" fill="#F5FFF9" transform="translate(0,0)"/>
<path d="" fill="#F1FBF8" transform="translate(0,0)"/>
<path d="" fill="#EFFCF5" transform="translate(0,0)"/>
<path d="" fill="#E5F4ED" transform="translate(0,0)"/>
<path d="" fill="#ECFCF4" transform="translate(0,0)"/>
<path d="" fill="#F1FAF7" transform="translate(0,0)"/>
<path d="" fill="#EDFBF4" transform="translate(0,0)"/>
<path d="" fill="#ECFAF3" transform="translate(0,0)"/>
<path d="" fill="#E7F7EE" transform="translate(0,0)"/>
<path d="" fill="#ECFAF4" transform="translate(0,0)"/>
<path d="" fill="#F1FEFA" transform="translate(0,0)"/>
<path d="" fill="#EBFBF4" transform="translate(0,0)"/>
<path d="" fill="#EEFAF5" transform="translate(0,0)"/>
<path d="" fill="#EBF8F3" transform="translate(0,0)"/>
<path d="" fill="#F2FBF7" transform="translate(0,0)"/>
<path d="" fill="#F5FEFB" transform="translate(0,0)"/>
<path d="" fill="#F1FEF8" transform="translate(0,0)"/>
<path d="" fill="#E9F6F2" transform="translate(0,0)"/>
<path d="" fill="#E7FAF0" transform="translate(0,0)"/>
<path d="" fill="#EAF7F0" transform="translate(0,0)"/>
<path d="" fill="#F4FBF7" transform="translate(0,0)"/>
<path d="" fill="#EDF9F3" transform="translate(0,0)"/>
<path d="" fill="#F2FBF7" transform="translate(0,0)"/>
<path d="" fill="#F5FEFA" transform="translate(0,0)"/>
<path d="" fill="#F6FDF9" transform="translate(0,0)"/>
<path d="" fill="#D3E9DC" transform="translate(0,0)"/>
<path d="" fill="#EFFAF4" transform="translate(0,0)"/>
<path d="" fill="#F2FAF6" transform="translate(0,0)"/>
<path d="" fill="#EFFCF7" transform="translate(0,0)"/>
<path d="" fill="#EDFBF3" transform="translate(0,0)"/>
<path d="" fill="#EBF8F0" transform="translate(0,0)"/>
<path d="" fill="#EDF9F2" transform="translate(0,0)"/>
<path d="" fill="#F1FCF8" transform="translate(0,0)"/>
<path d="" fill="#F3FBF8" transform="translate(0,0)"/>
<path d="" fill="#EBFAF4" transform="translate(0,0)"/>
<path d="" fill="#F1FBF8" transform="translate(0,0)"/>
<path d="" fill="#F3FDF9" transform="translate(0,0)"/>
<path d="" fill="#EEF9F4" transform="translate(0,0)"/>
<path d="" fill="#F1FCF9" transform="translate(0,0)"/>
<path d="" fill="#EEFCF6" transform="translate(0,0)"/>
<path d="" fill="#EBFBF3" transform="translate(0,0)"/>
<path d="" fill="#F3FEFA" transform="translate(0,0)"/>
<path d="" fill="#EAF7F1" transform="translate(0,0)"/>
<path d="" fill="#ECF9F4" transform="translate(0,0)"/>
<path d="" fill="#E7F9F0" transform="translate(0,0)"/>
<path d="" fill="#EDF9F3" transform="translate(0,0)"/>
<path d="" fill="#EFFAF2" transform="translate(0,0)"/>
<path d="" fill="#F7FFFB" transform="translate(0,0)"/>
<path d="" fill="#E8F8F1" transform="translate(0,0)"/>
<path d="" fill="#E7F8EE" transform="translate(0,0)"/>
<path d="" fill="#F3FBF8" transform="translate(0,0)"/>
<path d="" fill="#F7FEFA" transform="translate(0,0)"/>
<path d="" fill="#F1FDF6" transform="translate(0,0)"/>
<path d="" fill="#EFFBF6" transform="translate(0,0)"/>
<path d="" fill="#D9F1E3" transform="translate(0,0)"/>
<path d="" fill="#DDF3E6" transform="translate(0,0)"/>
<path d="" fill="#E5F5F0" transform="translate(0,0)"/>
<path d="" fill="#E6F6EF" transform="translate(0,0)"/>
<path d="" fill="#EAF7EF" transform="translate(0,0)"/>
<path d="" fill="#F6FFF9" transform="translate(0,0)"/>
<path d="" fill="#EAF9F1" transform="translate(0,0)"/>
<path d="" fill="#EDFAF6" transform="translate(0,0)"/>
<path d="" fill="#F6FEFA" transform="translate(0,0)"/>
<path d="" fill="#E8FAF2" transform="translate(0,0)"/>
<path d="" fill="#E8F8F0" transform="translate(0,0)"/>
<path d="" fill="#F7FFF9" transform="translate(0,0)"/>
<path d="" fill="#DBEFE4" transform="translate(0,0)"/>
<path d="" fill="#E9F7EF" transform="translate(0,0)"/>
<path d="" fill="#C5E3D2" transform="translate(0,0)"/>
<path d="" fill="#E2F4EA" transform="translate(0,0)"/>
<path d="" fill="#EDFBF5" transform="translate(0,0)"/>
<path d="" fill="#D4EDDE" transform="translate(0,0)"/>
<path d="" fill="#E1F2E9" transform="translate(0,0)"/>
<path d="" fill="#E6F7EF" transform="translate(0,0)"/>
<path d="" fill="#E1F5EB" transform="translate(0,0)"/>
<path d="" fill="#E1F4EA" transform="translate(0,0)"/>
<path d="" fill="#F4FDF9" transform="translate(0,0)"/>
<path d="" fill="#E7F8F0" transform="translate(0,0)"/>
<path d="" fill="#E8F7F1" transform="translate(0,0)"/>
<path d="" fill="#F4FDF6" transform="translate(0,0)"/>
<path d="" fill="#E8F7EF" transform="translate(0,0)"/>
<path d="" fill="#F3FAF8" transform="translate(0,0)"/>
<path d="" fill="#F3FDF9" transform="translate(0,0)"/>
<path d="" fill="#F6FCF6" transform="translate(0,0)"/>
<path d="" fill="#F2FCF7" transform="translate(0,0)"/>
<path d="" fill="#D8F1E4" transform="translate(0,0)"/>
<path d="" fill="#DBF1E5" transform="translate(0,0)"/>
<path d="" fill="#F4FEF9" transform="translate(0,0)"/>
<path d="" fill="#F4FCF8" transform="translate(0,0)"/>
<path d="" fill="#F3FBF7" transform="translate(0,0)"/>
<path d="" fill="#F2FCF7" transform="translate(0,0)"/>
<path d="" fill="#F1FCF6" transform="translate(0,0)"/>
<path d="" fill="#F2FDF8" transform="translate(0,0)"/>
<path d="" fill="#F1FAF5" transform="translate(0,0)"/>
<path d="" fill="#ECF9F2" transform="translate(0,0)"/>
<path d="" fill="#EDF8F3" transform="translate(0,0)"/>
<path d="" fill="#EEFAF5" transform="translate(0,0)"/>
<path d="" fill="#EEF9F2" transform="translate(0,0)"/>
<path d="" fill="#EEFAF2" transform="translate(0,0)"/>
<path d="" fill="#EFF7F5" transform="translate(0,0)"/>
<path d="" fill="#EDF9F5" transform="translate(0,0)"/>
<path d="" fill="#E0F4E6" transform="translate(0,0)"/>
<path d="" fill="#E7F8F0" transform="translate(0,0)"/>
<path d="" fill="#F0F9F3" transform="translate(0,0)"/>
<path d="" fill="#E7F6F0" transform="translate(0,0)"/>
<path d="" fill="#EDF7F2" transform="translate(0,0)"/>
<path d="" fill="#E8F9EF" transform="translate(0,0)"/>
<path d="" fill="#D9F0E5" transform="translate(0,0)"/>
<path d="" fill="#E6F6EE" transform="translate(0,0)"/>
<path d="" fill="#D2EBDD" transform="translate(0,0)"/>
<path d="" fill="#E6F7EE" transform="translate(0,0)"/>
<path d="" fill="#E6F6ED" transform="translate(0,0)"/>
<path d="" fill="#E5F4ED" transform="translate(0,0)"/>
<path d="" fill="#E0F1E9" transform="translate(0,0)"/>
<path d="" fill="#DEF0E6" transform="translate(0,0)"/>
<path d="" fill="#DAF2E6" transform="translate(0,0)"/>
<path d="" fill="#D9EFE3" transform="translate(0,0)"/>
<path d="" fill="#D2EADD" transform="translate(0,0)"/>
<path d="" fill="#CDE9D8" transform="translate(0,0)"/>
<path d="" fill="#739E81" transform="translate(0,0)"/>
<path d="" fill="#568564" transform="translate(0,0)"/>
<path d="" fill="#608F6D" transform="translate(0,0)"/>
<path d="" fill="#649172" transform="translate(0,0)"/>
<path d="" fill="#618F6F" transform="translate(0,0)"/>
<path d="" fill="#699576" transform="translate(0,0)"/>
</svg>
